<svg id="Layer_1" data-name="Layer 1" xmlns="http://www.w3.org/2000/svg" viewBox="0 0 115 54.92"><defs><style>.cls-1{fill:#50565b;}.cls-1,.cls-2{fill-rule:evenodd;}.cls-2{fill:#fff;}</style></defs><g id="Symbols"><g id="HD-Footer"><g id="Logo-FMH"><polygon id="Fill-1" class="cls-1" points="24 10.92 43 10.92 43 16.35 30.06 16.35 30.06 26.27 41.84 26.27 41.84 31.79 30.06 31.79 30.06 40.92 24 40.92 24 10.92"/><path id="Fill-2" class="cls-1" d="M243.22,232.76h.48l14.66,16.11,14.46-16.11h.51v30.07h-5.9V251.67c0-2,.21-5.21.21-5.21a52.27,52.27,0,0,1-3.2,4.2l-5.9,6.61H258l-5.9-6.61a52.27,52.27,0,0,1-3.2-4.2s.21,3.2.21,5.21v11.16h-5.85Z" transform="translate(-192.28 -222.12)"/><polygon id="Fill-4" class="cls-1" points="90.01 10.94 96.12 10.94 96.12 26.18 108.87 26.18 108.87 10.94 115 10.94 115 40.72 108.87 40.72 108.87 31.66 96.12 31.66 96.12 40.72 90.01 40.72 90.01 10.94"/><path id="Fill-6" class="cls-1" d="M198.32,239.87a9.15,9.15,0,0,1,.88-17.48,9.47,9.47,0,0,1,2.2-.27h6.29l0,.37s-.21,4.5-4.35,4.82H201.4a4.11,4.11,0,0,0-2,.51,4.85,4.85,0,0,0-.77.58l-.27.29a4,4,0,0,0-1,2.58,4.06,4.06,0,0,0,1,2.59l.27.29.11.09V240Z" transform="translate(-192.28 -222.12)"/><path id="Fill-9" class="cls-2" d="M204.08,224.29a1.15,1.15,0,1,1-1.15-1.15,1.15,1.15,0,0,1,1.15,1.15" transform="translate(-192.28 -222.12)"/><path id="Fill-11" class="cls-1" d="M197.8,277.05c-1.25,0-1.25-1,.61-2s4.28-2.53,4.18-7.4V259.3l.54.31a9,9,0,0,1,0,15.67,12.42,12.42,0,0,1-5.33,1.77" transform="translate(-192.28 -222.12)"/><path id="Fill-14" class="cls-1" d="M198.3,264.67a9.17,9.17,0,0,1-4.66-8,9.8,9.8,0,0,1,4.62-7.95c3.29-2,4.25-2.64,4.31-4.27V236l.52.3a9.16,9.16,0,0,1,0,15.95c-2.88,1.65-4.33,2.36-4.33,4.39V265Z" transform="translate(-192.28 -222.12)"/><path id="Fill-16" class="cls-2" d="M202.57,244.49V227.3h-.23l-.94,0a3.91,3.91,0,0,0-2,.53,4.49,4.49,0,0,0-.67.5v20.14c2.89-1.78,3.73-2.43,3.79-4" transform="translate(-192.28 -222.12)"/><path id="Fill-18" class="cls-2" d="M202.57,267.67V252.53c-2.51,1.44-3.79,2.19-3.79,4.09v18.22c1.76-1,3.89-2.64,3.79-7.17" transform="translate(-192.28 -222.12)"/></g></g></g></svg>