<?xml version="1.0" encoding="utf-8"?>
<!-- Generator: Adobe Illustrator 25.2.3, SVG Export Plug-In . SVG Version: 6.00 Build 0)  -->
<svg version="1.1" id="Layer_1" xmlns="http://www.w3.org/2000/svg" xmlns:xlink="http://www.w3.org/1999/xlink" x="0px" y="0px"
	 viewBox="0 0 22 21" style="enable-background:new 0 0 22 21;" xml:space="preserve">
<style type="text/css">
	.st0{fill:#636951;}
</style>
<path id="Symbols" class="st0" d="M16,6.5c-0.6,0-1.1-0.5-1.1-1.1c0-0.6,0.5-1.1,1.1-1.1c0.6,0,1.1,0.5,1.1,1.1v0
	C17.2,6,16.7,6.5,16,6.5 M19,15.1c0,2-1.7,3.7-3.7,3.7h-9c-2,0-3.7-1.7-3.7-3.7v-9c0-2,1.7-3.7,3.7-3.7h9c2,0,3.7,1.7,3.7,3.7V15.1z
	 M15.3,0.7h-9c-3,0-5.3,2.4-5.3,5.3v9c0,3,2.4,5.3,5.3,5.3h9c3,0,5.3-2.4,5.3-5.3v-9C20.6,3.1,18.3,0.7,15.3,0.7L15.3,0.7z
	 M14.2,10.7c0,1.8-1.5,3.3-3.3,3.3s-3.3-1.5-3.3-3.3s1.5-3.3,3.3-3.3C12.7,7.4,14.2,8.9,14.2,10.7L14.2,10.7z M10.8,5.7
	c-2.7,0-4.9,2.2-4.9,4.9c0,2.7,2.2,4.9,4.9,4.9c2.7,0,4.9-2.2,4.9-4.9C15.7,7.9,13.5,5.7,10.8,5.7L10.8,5.7z"/>
</svg>
