<svg id="Ebene_1" data-name="Ebene 1" xmlns="http://www.w3.org/2000/svg" viewBox="0 0 607.3 806.03">
  <defs>
    <style>
      .cls-1 {
        fill: #d7dacd;
      }
    </style>
  </defs>
  <g>
    <path class="cls-1" d="M565.47,801.61c-.56-1-50.34-95.68-82.55-210a3,3,0,0,0,1.62-2.12c1.68-9,41.34-221.2,43.32-272.76,1-26-4.86-53.72-16.52-78.06-12-25-29.36-44.75-48.95-55.52-17.32-9.53-30.17-13-40.5-15.8-13.9-3.77-23.08-6.25-34.51-20.41-11.77-14.57-11.38-39.61-8.06-61,16.1-15.08,32-32.1,37.44-44.82,7.4-17.25,9.15-28.79,5.36-35.29-2-3.36-5.25-5.32-9.78-5.83-3.8-.43-9.09,2-19.37,22.75-5.37,10.86-9.68,22-9.75,22.17A240.36,240.36,0,0,0,373.63,83c-19.5,18.06-39,33.2-39.36,33.47l-.12.1c-.14.12-11.25,9.51-24.9,12.83a85.24,85.24,0,0,1-.11-9.4,21.74,21.74,0,0,0-3.85-13.73A122.09,122.09,0,0,1,323,99.79c7.81-2.32,9.84-6.41,10.16-9.42.56-5.22-3.66-10.71-11.57-15.06-7.7-4.23-18.27-2.26-22.63.72-.15.11-.36,0-.5-.11-3.28-3.13-9.48-4.47-18.43-4-6.51.36-11.3,2.55-14.22,6.52-3.44,4.66-3.12,10.34-2.75,12.87-1.12,2.1-2.8,6.72-1.11,13.63-1.41-1-2.88-2-4.32-3.09a2.73,2.73,0,0,0,.92-.28A3,3,0,0,0,260.21,99c0-.72.27-17.59-8.38-25.74A16.07,16.07,0,0,0,239,69c-10,.8-16.72,4.36-20,10.56-6.22,11.94,3.53,28.85,4,29.56a3,3,0,1,0,5.18-3c-2.38-4.07-7.71-16.26-3.81-23.75,2.21-4.26,7.3-6.73,15.11-7.36a10.19,10.19,0,0,1,8.24,2.66c4,3.74,5.52,10.46,6.12,15.34-7.52-4.78-9-3.46-10.13-2.45-1.52,1.36-1.55,3.35-.08,5.92,4.26,7.46,20.24,17,22.05,18.07a3.35,3.35,0,0,0,.35.15,61.56,61.56,0,0,0,5.87,8.19c7,8.27,15.46,12.86,25.24,13.65a39.17,39.17,0,0,0,6.68-.05,265.37,265.37,0,0,0,5.1,29.65,2.28,2.28,0,0,0,0,.26,92.54,92.54,0,0,0,6.56,20.76l44.69,131.72c-1.33-.72-2.63-1.37-3.9-1.93-9.75-4.26-22.78-.5-27.9,8.05-3.86,6.45-6.42,20.36,19.86,41,11.63,9.15,20.43,14.7,27.77,17.75a218,218,0,0,1,2.43,30.38q-3.9.63-8,1.51c-17.73,3.84-36.69,11-55.28,20.76a346.67,346.67,0,0,1-41.43-20.4,2.35,2.35,0,0,0-.53-.25c-.56-.2-42.07-15.33-81.76-52.37a70.19,70.19,0,0,1,.42-8.08,102.66,102.66,0,0,0-.58-26c-.92-7-1.78-15-2.69-23.47-4-37.7-9.59-89.33-28.56-127.29-7-14-14.71-20.87-22.83-20.39-14.6.87-23.64,25-24.63,27.71a3.45,3.45,0,0,0-.12.46c-.12.62-2.8,15.47.22,39.5,5,40,21.88,73.44,35.14,94.48A241.16,241.16,0,0,0,185.53,366c.63,9.27,4,22.9,15.95,53.58,12.88,33.21,10.91,51.93,7,61.79-4.11,10.31-11,13.11-11.23,13.22-1.34.5-33,12.63-60.17,44.82-27.8,33-53.25,126.52-13.72,162.94,18.14,16.7,40.16,25.37,67.33,26.5,21.47.89,45.44-2.87,75.39-11.86,50.12-15,118.47-13.52,128.21-6.44,5.85,4.26,14.73,20.26,10.82,28-3.33,6.63-16.16,6.85-36.13.63-61.11-19-97.14-8.45-98.65-8l-.29.1c-.88.37-88.53,36.7-130.56-4.37-23.27-22.74-47.94-30.71-64.54-33.4-18.06-2.93-30.52-.46-31-.36a3,3,0,0,0,1.19,5.88c.48-.09,48-9.08,90.19,32.17,14.42,14.09,35.44,21.3,61.57,21.3a167.17,167.17,0,0,0,24.36-1.88,232.75,232.75,0,0,0,51-13.75c12.33-3.66,47.81-6.66,95,8,23.78,7.4,38.34,6.17,43.28-3.66,5.61-11.17-5-30-12.66-35.59-12.33-9-82.93-9.61-133.46,5.55C235,720,211.71,723.73,190.92,722.87c-25.69-1.07-46.47-9.23-63.51-24.93-35.8-33-12.68-122.75,14.24-154.66,26.1-30.93,57.37-42.95,57.68-43.07s8.83-3.42,14.06-15.1c7.09-15.84,5-38.61-6.32-67.69-9-23.23-13-36.29-14.65-45.07a277.83,277.83,0,0,0,34.45,26.08c23.39,15,41.48,21.87,44,22.8A343,343,0,0,0,308.31,440c-7.06,4-14,8.29-20.84,12.94-14.54,9.95-28,18.76-41,27.27-36.77,24-68.53,44.78-96.27,74a3,3,0,0,0,4.36,4.13c27.25-28.73,57.23-48.32,95.19-73.13,13-8.53,26.55-17.35,41.15-27.34a270.79,270.79,0,0,1,24.61-15c14.44,5.64,30,10.16,43,10.16a43.68,43.68,0,0,0,8.17-.71,17.2,17.2,0,0,0,11.62-8.27c3.76-6,5.51-14.8,6-24.88,17.1-2.12,30.32,0,36.65,6.36a76.75,76.75,0,0,0,6.87,6,37,37,0,0,1,4.48,4A3,3,0,0,0,433.4,437c6.64,8.51,13.06,28.78,33.61,117,30.7,131.68,92.54,249.23,93.16,250.4a3,3,0,0,0,2.65,1.6,2.94,2.94,0,0,0,1.4-.35A3,3,0,0,0,565.47,801.61ZM388.84,47.06c0-.1,4.13-10.64,9.25-21.08,9.58-19.52,13.58-20,13.59-20,3.43.38,4.64,1.82,5.26,2.88,1.87,3.21,2.41,11-5.69,29.91-4.42,10.32-16.67,24.07-30.12,37.13A241.39,241.39,0,0,1,388.84,47.06Zm-203,307.63c-.09,1-.18,2-.26,3A231.93,231.93,0,0,1,152.88,317c-43.32-68.74-35.22-125.48-34.58-129.46,2.42-6.59,10.31-23,19.25-23.5,5.44-.33,11.35,5.59,17.1,17.08,18.49,37,24,88,28,125.25.91,8.53,1.77,16.58,2.7,23.61A96.71,96.71,0,0,1,185.87,354.69ZM270.64,82c1.81-2.44,5.08-3.8,9.7-4.06,9.83-.55,13,1.44,14,2.32a6.34,6.34,0,0,0,8,.73c2.6-1.77,10.72-3.53,16.36-.42,6.18,3.4,8.72,7.05,8.49,9.15C327,91.4,324.84,93,321.27,94a119.66,119.66,0,0,0-20.09,7.6l-.77-.67c-9.92-8.39-25.56-11-31.56-11.79A11,11,0,0,1,270.64,82Zm26.95,48.49c-8.12-.66-15.22-4.54-21.11-11.54-10.94-13-9.74-20.88-8.61-23.84,5.2.64,19.91,3,28.66,10.44a21.59,21.59,0,0,1,2,1.85,16.13,16.13,0,0,1,4.67,12.34,94.37,94.37,0,0,0,.15,10.7A34,34,0,0,1,297.59,130.49ZM408.67,320.32c-.11-1.08-1.29-10.68-8.09-14.09-4-2-8.7-1.37-14.08,1.84a2.26,2.26,0,0,0-.41.3,13.85,13.85,0,0,0-4.62,14.41c1.38,4.84,5.38,8.35,10.82,9.56-6.85,1.58-16-3.91-24.2-8.89L328.14,205.71a37.8,37.8,0,0,0,7.83,5.81c9.88,5.42,21.41,5.43,34.26,0,52.52-22.14,62.87-14.79,72-8.31,10.9,7.73,26.55,26.72,9,67.09-16.48,27.65-31.67,43.44-42.66,50.94A3.28,3.28,0,0,0,408.67,320.32Zm-6.06,0a32.6,32.6,0,0,1-2.54,5.51,12,12,0,0,1-5.59.83c-3.76-.57-6.4-2.58-7.25-5.52a7.94,7.94,0,0,1,2.58-8.05c3.39-2,6.1-2.47,8.07-1.49C400.88,313.09,402.23,317.92,402.61,320.31Zm-50.67,40.91c-16.55-13-23.26-25.11-18.41-33.21,3.54-5.92,13.43-8.66,20.35-5.63a84,84,0,0,1,9.23,5.06l4.08,12c.37,1.42,4.6,17.74,7.77,37.28C368.86,373.71,361.54,368.76,351.94,361.22Zm21.22,79.72a11.31,11.31,0,0,1-7.64,5.58c-11.58,2.17-27.51-1.67-42.85-7.28,20-9.94,39.25-16.29,55.6-19.1C377.79,428.68,376.26,436,373.16,440.94Zm58.33-14a70.9,70.9,0,0,1-6.37-5.58c-7.47-7.47-22-10.27-40.76-8.13a219.36,219.36,0,0,0-2-27.46c10.53,2.59,18.39-.39,29.21-4.53a200.5,200.5,0,0,1,20.2-6.8A33.11,33.11,0,0,0,451,360.33a544.45,544.45,0,0,1-17.27,68.44C433,428.18,432.27,427.59,431.49,427Zm7,6.63c2-6,8.32-25.55,13.81-49.37,8.87-38.49,11.44-69.13,7.65-91.07a3,3,0,0,0-5.92,1c.11.66,10.16,65.35-23.79,74.53a203.22,203.22,0,0,0-20.77,7c-11,4.2-18.05,6.88-28,3.77a418.71,418.71,0,0,0-8.51-41.6.82.82,0,0,0-.06-.19l-1.85-5.46c8.12,4.61,16.69,8.25,24.37,5.49a18,18,0,0,0,8.69-7c5-2.18,10.67-6,16.65-11.42,11.83-10.66,24.2-26.57,35.77-46a2.21,2.21,0,0,0,.18-.34c8.55-19.66,10.6-36.87,6.1-51.16a45.18,45.18,0,0,0-17.11-23.39c-10.4-7.39-22.2-15.76-77.8,7.67-11.07,4.66-20.83,4.75-29,.25-8.48-4.65-14.21-13.51-17.94-21.8L316,170a277.89,277.89,0,0,1-6.26-34.47c15.09-3.35,27.1-13.31,28.25-14.28,1.67-1.29,17.27-13.43,34.32-28.81-2.4,20.83-1.36,43.78,10.39,58.32,12.65,15.67,23.67,18.65,37.61,22.43,10,2.71,22.49,6.09,39.18,15.27,37.57,20.66,64.38,75.73,62.37,128.09C520.11,362.3,487.16,542.35,480,581.06q-3.78-14.05-7.14-28.41C452.3,464.45,445.78,443.09,438.45,433.59Z"/>
    <path class="cls-1" d="M463.16,758.62A103.12,103.12,0,0,0,449.83,706c-10.33-18.38-23-28.68-24.82-30.1-1.67-1.7-12.23-11.38-38-12.87a390.87,390.87,0,0,1-22.33-34.3,330.25,330.25,0,0,1-25.21-55.56c10.52-15.74,12.75-32.68,9.7-43.72-1.83-6.64-5.53-10.91-10.4-12s-7.85.51-9.54,2.07c-5.74,5.27-4.37,17.25-4.11,19.13.1,1.57,1.07,13.43,7.65,33.62a66.91,66.91,0,0,1-7.74,8.86c-24.76,23.81-93.83,66.71-98.16,69.4a279.85,279.85,0,0,0-28.21,13.69c-19.92,11.13-31.66,21.5-34.92,30.83a14.74,14.74,0,0,0,1,12.57c6,10.68,19.94,14.76,41.31,12.11A156.91,156.91,0,0,0,235.23,713l.37-.16c.58-.3,59.18-29.9,114.07-40.68A151.6,151.6,0,0,1,383.89,669c22.42,31.11,51.46,66.27,73.28,91.86a112,112,0,0,1-5.08,28.31,3,3,0,0,0,5.73,1.77,119.1,119.1,0,0,0,4.84-23.66c15.16,17.65,25.7,29.42,26,29.77a3,3,0,1,0,4.46-4C492.8,792.64,480.4,778.81,463.16,758.62Zm-132-220.44a2.11,2.11,0,0,0,0-.25c-.58-4.1-.49-11.52,2.21-14a3.33,3.33,0,0,1,2.41-.85,8,8,0,0,1,1.72.22c2.59.6,4.76,3.44,6,7.79,2.45,8.89.66,22-6.35,34.52C331.8,548.18,331.12,538.36,331.11,538.18Zm17.4,128.06c-54.15,10.64-111.75,39.27-115.45,41.13-14.49,5.06-53.53,14.27-63.13-2.71a8.81,8.81,0,0,1-.51-7.63c2.71-7.78,13.82-17.31,32.12-27.55A282.36,282.36,0,0,1,229.37,656a2.38,2.38,0,0,0,.45-.23c3-1.84,73.48-45.4,99.38-70.3a77.58,77.58,0,0,0,5.91-6.37,344.19,344.19,0,0,0,24.35,52.62c5.19,9.25,12.12,19.87,20.08,31.17A166.94,166.94,0,0,0,348.51,666.24Zm43.18,3.3c21,2.34,29,10.53,29.08,10.64a3,3,0,0,0,.41.39c.13.09,13.11,10.07,23.42,28.41a96,96,0,0,1,12.54,42.57C437,727.79,412,697.27,391.69,669.54Z"/>
    <path class="cls-1" d="M187.51,133.25a120.29,120.29,0,0,1,8.5,8.58c7.61,8.77,19,15.18,31,22,8.8,5,17.89,10.11,25.12,16.16,23.4,27.37,23,43.13,22.3,67-.16,5.59-.34,11.92-.21,18.84.16,8.83.92,19.59,2.17,31.06-15.24-19.1-28.83-33.06-29-33.22a3,3,0,0,0-4.3,4.2,492.84,492.84,0,0,1,34.69,40.63c4.21,31.5,11.77,65.16,21,77.88,2,2.75,7.56,10.47,13.46,10.47a6.63,6.63,0,0,0,2.4-.46c5.34-2.09,6.32-10.48,5.54-17.06-1.43-18.35-13.75-43-36.62-73.24a383.18,383.18,0,0,1-3.32-40.37c-.12-6.78,0-12.77.2-18.57.68-24.37,1.17-42-23.89-71.22a2.81,2.81,0,0,0-.35-.34c-7.68-6.48-17.11-11.81-26.22-17-11.54-6.52-22.44-12.68-29.37-20.67-2.77-3.2-5.9-6.15-8.92-9-11.48-10.85-23.35-22.07-21.32-50.74,1.54-21.72,8.06-23.91,9.35-24.12a2.79,2.79,0,0,1,2.88,1.12c1.25,2.92.4,7.93-.09,9.84-.91,2.2-7.2,18.61-.95,35,.49,1.3.9,2.39,1.24,3.31l.36,1.13c1.19,3.7,1.41,4.07,2.22,4.65a3,3,0,0,0,3.58,0c1.77-1.36,1.17-3,.42-5.19-.21-.58-.51-1.43-.94-2.59-1.76-5.83-4.2-15.95-2.63-20.46,5.06-14.54,15.37-20.08,29.31-23.92,7.49-2.06,8.56-1.17,9.26-.59a1.27,1.27,0,0,1,.24,1.17c-.22,1.06-1.86,4.85-14,9.21-7.81,2.8-12.94,9.43-14.08,18.19-1.54,11.93,4.4,24.74,14.78,31.86a3,3,0,0,0,3.4-5c-8.44-5.79-13.47-16.54-12.23-26.14.49-3.79,2.47-10.55,10.15-13.31,11-3.93,17-8.59,17.92-13.86a7.15,7.15,0,0,0-2.3-6.78c-3.13-2.6-6.84-2.75-14.71-.58-9,2.47-17.89,5.9-24.72,13.09.5-2.9.92-7.65-.68-11.38a8.7,8.7,0,0,0-9.39-4.68c-4.63.78-12.64,5.66-14.34,29.62C162.1,109.23,175.6,122,187.51,133.25ZM314.14,379.78c0,.05,0,.09,0,.14.77,6.34-.74,10.41-1.76,10.81-.62.25-3.57-.69-8.81-7.94-7.43-10.29-14-36.85-18.26-64.11C299.81,339.06,312.77,361.89,314.14,379.78Z"/>
  </g>
</svg>
