<svg id="Ebene_1" data-name="Ebene 1" xmlns="http://www.w3.org/2000/svg" viewBox="0 0 607.3 806.03">
  <defs>
    <style>
      .cls-1 {
        fill: #d6d1db;
      }
    </style>
  </defs>
  <g>
    <path class="cls-1" d="M211.63,244.62a3,3,0,0,0-3-2.55h0a3,3,0,0,0-3,2.55c-5.62,37.73-22.58,72-22.75,72.35a2.37,2.37,0,0,0-.2.5c-.39,1.35-3.45,11.94-7.22,26.67-.32-1.41-.64-2.84-1-4.27-9.73-43-6.47-55.54-2.66-63.94,3.65-8,8.5-21.58,8.5-46.5,0-11.19,1.16-13.82,3.09-18.17s4.7-10.62,7.56-27.41c5.75-33.67,3.44-84.89,3.34-87.06a3,3,0,0,0-6-.16c-4.79,46.48-20.77,80.17-47.53,100.13-36.19,27-80.16,19.11-80.6,19a3,3,0,0,0-1.12,5.9c1.9.36,46.9,8.51,85.25-20.06,21.53-16,36.42-40.32,44.47-72.39-.15,17-1,37.55-3.74,53.61s-5.28,21.8-7.14,26c-2.17,4.9-3.6,8.14-3.6,20.6,0,23.76-4.54,36.5-8,44-4.22,9.28-7.87,22.94,2.27,67.74q1.88,8.3,3.55,16.07c-8.13,33.56-17,78.24-10.77,92.29,4.48,10.09,7.75,13.91,11.7,13.67,5.2-.33,7.34-7.46,10.87-19.25.37-1.24.75-2.51,1.15-3.81,5-16.54,1.42-44.17-6.8-82.81,3.69-15.19,7.4-28.89,10-38A293.15,293.15,0,0,0,208.94,260a273.65,273.65,0,0,0,9.27,28.13C228,313.29,241,376.38,240.23,422c-.81,45-13.36,93.05-32,151.38q-3.32,10.41-6.39,19.86c-14.85,45.89-24.67,76.2-21.72,106.44,3.31,33.91,12.3,43,13.32,43.89a2.94,2.94,0,0,0,2,.78,3.07,3.07,0,0,0,1.44-.36,3,3,0,0,0,1.52-3.13,84.72,84.72,0,0,1,2.06-31.37c5.79-22.25,20-38,42.18-46.82a3,3,0,0,0-2.22-5.58c-30.08,12-41.52,34.39-45.82,51.11A91.45,91.45,0,0,0,191.86,728c-2.16-6.19-4.41-15.44-5.72-28.92-2.83-29,6.83-58.83,21.45-104q3.06-9.48,6.4-19.88c18.76-58.84,31.42-107.39,32.24-153.11.82-46.3-12.51-110.47-22.43-136.1C214.19,261.11,211.65,244.78,211.63,244.62ZM179.46,438.41c-.4,1.31-.79,2.59-1.16,3.84-1.77,5.89-3.94,13.15-5.52,14.82-.7-.56-2.54-2.59-5.82-9.95-4.67-10.53,1-44.24,8.17-75.83C181.13,401.85,183.56,424.93,179.46,438.41Z"/>
    <path class="cls-1" d="M534,673.1c-2.23-2.59-4.36-4.86-6.62-7.27C515,652.68,500.94,637.78,466.5,563.11,410.86,442.5,409.3,304.73,426.4,216,442.5,132.43,446.07,74.91,437,45c-8.36-27.6-36.74-42.66-58.27-40.8-18.25,1.59-44.93-4-45.2-4.06l-.37,0c-2.55-.22-15.46-.95-19.06,6.19-2.21,4.38-.29,9.9,5.86,16.89,18.22,20.71,27.8,38.62,38.17,62.57A67.82,67.82,0,0,1,363,103.25a38.13,38.13,0,0,1-7.36,1.4c-9.4.94-19-.88-30.06-3-17.28-3.27-36.88-7-63.2-1.92-25.7,4.94-46.83,17.56-56.52,33.76-5.34,8.91-6.83,18.45-4.21,26.86,11.95,38.34,41.45,72.23,85.29,98,16.53,9.71,31.41,13.62,44.19,14.29-11.29,32.08-19.67,61-21,69.93-2.54,17.74-.67,25.66,16.63,70.63,5.22,13.59,9.66,24.87,14,35.78,9.41,23.94,18.3,46.56,34.58,90.91,20.79,56.62,18.12,124.85,12.22,172.11-6.41,51.37-17.92,89.78-18,90.16a3,3,0,0,0,2,3.74,2.91,2.91,0,0,0,.87.13,3,3,0,0,0,2.87-2.13c.12-.39,11.75-39.2,18.23-91,6-48,8.69-117.24-12.52-175-16.31-44.42-25.21-67.07-34.64-91.05-4.29-10.9-8.72-22.17-13.93-35.73-17-44.14-18.66-51.09-16.29-67.63,1.28-9,9.84-38.37,21.3-70.7a73.75,73.75,0,0,0,25-5.12,75,75,0,0,0,27.73-18.78c5.46-4.95,12.47-22.65,4.91-58.68-2.41-11.46-5.43-18.79-8.52-23.42,16.68-27.5,24.28-40.11,15.81-63.4-5.76-15.82-11.7-23.82-18.18-24.44a8.12,8.12,0,0,0-7.79,4.17A14.4,14.4,0,0,0,375,88.24c-.62,4-1.39,8.9-6.36,12.37a72.28,72.28,0,0,0-5-17.21C353,58.9,343.23,40.55,324.48,19.24c-6-6.8-5.35-9.54-5-10.21,1.32-2.6,8.48-3.28,13-2.94,2.67.56,28.25,5.74,46.77,4.13,16.72-1.45,44.1,10.44,52,36.56,8.77,28.93,5.14,85.48-10.77,168.09-17.27,89.64-15.69,228.86,40.54,350.76C495.9,641.18,510.27,656.46,523,670c2.22,2.35,4.31,4.57,6.44,7.06,14.25,16.6,18.35,26.34,13,47.93-1.13,4.49-2.09,8.78-3,12.92-3.89,17.3-7,31-17.8,44.35-4.39,5.42-6.73,6.84-7.6,7.2-.38-1.33-.3-5,1.23-9.22.51-1.39,1.35-3.2,2.33-5.29,2.56-5.49,6.08-13,7.85-22.18a58.45,58.45,0,0,0-2.78-32.21c-4.36-11.72-9.25-18.12-14.14-18.53a5.31,5.31,0,0,0-5.15,2.72c-1.43,2.49-1.1,5.91.85,8.7,3.17,4.52,4.72,17.32,5.55,24.2.19,1.6.36,3,.52,4.13.07.5.17,1.1.28,1.76,1.63,10.14.74,12.42.06,12.88-.18.12-1.37.21-4.07-1.36-3-3.63-3.44-11.16-3.86-18.44-.47-8.37-1-17-5-23.24-2.1-3.21-5.15-5.27-8.38-7.46-9.22-6.25-21.86-14.8-20.35-60.75a3,3,0,1,0-6-.2c-1.5,45.49,10,57.14,23,65.92,2.83,1.92,5.28,3.57,6.72,5.77,3.19,4.87,3.63,12.72,4.06,20.3.37,6.56.74,12.84,2.76,17.74-1.91,2.12-6.66,7.46-11.44,13.52-11.49,14.59-12.55,19.89-12.34,22.61a5.31,5.31,0,0,0,2,3.89A5.85,5.85,0,0,0,481.3,796c4.3,0,10.4-3.8,19-11.71,3.91-3.59,7.91-7.66,11.6-11.63-1,2.1-1.84,3.94-2.41,5.52-1.78,4.9-3.49,14,1.42,16.73s10.72-3.29,15.25-8.88c11.73-14.49,15.1-29.47,19-46.82.93-4.1,1.88-8.35,3-12.77C554.24,702.06,548.69,690.29,534,673.1ZM389.24,191.37c8.72,41.54-3.05,53-3.13,53.06a3.73,3.73,0,0,0-.34.35A69.66,69.66,0,0,1,360,262.12a67.94,67.94,0,0,1-20.43,4.58c6.33-17.5,13.42-35.54,20.59-51.44a16.55,16.55,0,0,0,3.77-2.9c4.34-4.46,5.84-11,6.15-17.47q1.65-3.1,3.27-5.94c3.48-6,6.72-11.48,9.71-16.43C385.28,176.66,387.44,182.77,389.24,191.37Zm-20.4-16.19c.1-4.9,3.07-9.63,6.22-9.93h.31a5.94,5.94,0,0,1,3.93,1.95c-2.95,4.87-6.17,10.22-9.63,16.19-.13-1.36-.28-2.62-.42-3.76C369,177.67,368.83,176,368.84,175.18Zm.63-68.05a20.42,20.42,0,0,0,6.74-5.4c3.45-4.31,4.19-9.08,4.74-12.57a15.48,15.48,0,0,1,.63-3,2.37,2.37,0,0,1,2.08-1.28c1,.1,6.2,1.53,13.11,20.52,7.33,20.17,1.09,31.2-14.32,56.62a10.72,10.72,0,0,0-7.95-2.71c-6.26.58-11.49,7.66-11.65,15.77a42.41,42.41,0,0,0,.45,5.27,96.91,96.91,0,0,1,.87,13c-2.82,5.37-5.67,11.25-8.51,17.49a19.16,19.16,0,0,1-8.48.85c-11.34-1-14-4.32-14.67-5.7a4.4,4.4,0,0,1,.74-4.32,6.76,6.76,0,0,1,4.85-3h.29c.88.09,1.79.26,2.67.41,3.56.64,8,1.44,12-3.06,3.54-4,6.37-12,9.17-26.08l.4-2C367,145.78,371.06,125.71,369.47,107.13Zm-5.8,2.18c1.15,17-2.59,35.7-6.95,57.47l-.4,2c-2.52,12.58-5.06,20.2-7.78,23.28-1.66,1.87-2.94,1.75-6.42,1.13-1-.18-2-.36-3.13-.48-3.78-.38-8,1.8-10.62,5.42a10.16,10.16,0,0,0-1.31,10.32c2.37,5.14,9,8.23,19.59,9.17a31.19,31.19,0,0,0,6,0c-6.79,15.49-13.44,32.65-19.39,49.25-13.93-.38-28.39-4.94-43.22-13.65-42.54-25-71.1-57.7-82.6-94.59-2.14-6.86-.88-14.47,3.63-22,8.83-14.76,28.46-26.32,52.5-30.95A129.12,129.12,0,0,1,288,103.28c13.81,0,25.62,2.23,36.48,4.29,11.06,2.09,21.51,4.07,31.77,3.05A45.37,45.37,0,0,0,363.67,109.31ZM509,710a3.21,3.21,0,0,1-.64-1.78c1.18.7,4.48,3.53,8.54,14.44a52.76,52.76,0,0,1,1.43,33.53,1.59,1.59,0,0,1-.13.13c-.68.85-1.44,1.76-2.24,2.71,2.14-3.86,1.4-10.18.39-16.45-.1-.63-.19-1.19-.26-1.66-.15-1.08-.32-2.45-.5-4C514.6,728.45,513.06,715.71,509,710Zm-11.69,68.87c-10.55,9.88-14.68,11-15.81,11.11.14-3.86,9.42-17,21.27-30.15l.16.13c1.7,1,6.86,4.16,10.91,1.43.13-.09.23-.19.35-.28A240.32,240.32,0,0,1,497.34,778.83Z"/>
  </g>
</svg>
