<svg id="Layer_1" data-name="Layer 1" xmlns="http://www.w3.org/2000/svg" xmlns:xlink="http://www.w3.org/1999/xlink" viewBox="0 0 307.41 88"><defs><style>.cls-1,.cls-2{fill:none;}.cls-1{clip-rule:evenodd;}.cls-3{clip-path:url(#clip-path);}.cls-4{fill:#636951;}.cls-5{clip-path:url(#clip-path-2);}.cls-6{fill:#fff;}.cls-7{clip-path:url(#clip-path-3);}.cls-8{clip-path:url(#clip-path-4);}.cls-9{clip-path:url(#clip-path-5);}.cls-10{clip-path:url(#clip-path-6);}.cls-11{clip-path:url(#clip-path-7);}.cls-12{clip-path:url(#clip-path-8);}.cls-13{clip-path:url(#clip-path-9);}.cls-14{clip-path:url(#clip-path-10);}.cls-15{clip-path:url(#clip-path-11);}.cls-16{clip-path:url(#clip-path-12);}.cls-17{clip-path:url(#clip-path-13);}.cls-18{clip-path:url(#clip-path-14);}.cls-19{clip-path:url(#clip-path-15);}.cls-20{clip-path:url(#clip-path-16);}.cls-21{clip-path:url(#clip-path-17);}.cls-22{clip-path:url(#clip-path-18);}.cls-23{clip-path:url(#clip-path-19);}.cls-24{clip-path:url(#clip-path-20);}.cls-25{clip-path:url(#clip-path-21);}.cls-26{clip-path:url(#clip-path-22);}.cls-27{clip-path:url(#clip-path-23);}.cls-28{clip-path:url(#clip-path-24);}.cls-29{clip-path:url(#clip-path-25);}.cls-30{clip-path:url(#clip-path-26);}.cls-31{clip-path:url(#clip-path-27);}.cls-32{clip-path:url(#clip-path-28);}.cls-33{clip-path:url(#clip-path-29);}.cls-34{clip-path:url(#clip-path-30);}.cls-35{clip-path:url(#clip-path-31);}.cls-36{clip-path:url(#clip-path-32);}.cls-37{clip-path:url(#clip-path-33);}.cls-38{clip-path:url(#clip-path-34);}.cls-39{clip-path:url(#clip-path-35);}.cls-40{clip-path:url(#clip-path-36);}</style><clipPath id="clip-path" transform="translate(1.26 2.67)"><path class="cls-1" d="M81.74,41.33a39,39,0,1,1-39-39,39,39,0,0,1,39,39"/></clipPath><clipPath id="clip-path-2" transform="translate(1.26 2.67)"><path class="cls-1" d="M34.73,72.74v2.79c.88.21,1.77.39,2.67.53V46.68H34.73Z"/></clipPath><clipPath id="clip-path-3" transform="translate(1.26 2.67)"><rect class="cls-2" x="34.73" y="33.32" width="2.67" height="9.62"/></clipPath><clipPath id="clip-path-4" transform="translate(1.26 2.67)"><polygon class="cls-1" points="41.14 39.73 41.14 42.48 48.01 42.48 48.01 46.6 41.14 46.6 41.14 49.35 48.01 49.35 50.76 49.35 50.76 46.6 50.76 42.48 50.76 39.73 48.01 39.73 41.14 39.73"/></clipPath><clipPath id="clip-path-5" transform="translate(1.26 2.67)"><path class="cls-1" d="M66,42.48H77.44q0-.69,0-1.38c0-.46,0-.91,0-1.37H62v9.62H76.53c.21-.91.38-1.82.52-2.75H64.67V42.48Z"/></clipPath><clipPath id="clip-path-6" transform="translate(1.26 2.67)"><path class="cls-1" d="M41.14,53.62V65.78H48v7.66a33.46,33.46,0,0,1-5.5.45c-.46,0-.91,0-1.37,0v2.7c.46,0,.91,0,1.37,0a36.16,36.16,0,0,0,8.25-.94V63.08H43.89V56.32h6.87v-2.7H41.14Z"/></clipPath><clipPath id="clip-path-7" transform="translate(1.26 2.67)"><path class="cls-1" d="M23,46.68H8c.14.9.31,1.79.52,2.67H20.3V54H10A34.88,34.88,0,0,0,23,70.18V66.9h0V60.7H20.3v3.92L19.67,64a32.2,32.2,0,0,1-5.48-7.32H23V54h0Z"/></clipPath><clipPath id="clip-path-8" transform="translate(1.26 2.67)"><path class="cls-1" d="M74.74,35.69h2.73c-.14-.91-.32-1.81-.53-2.69H44.16V8.8A31.89,31.89,0,0,1,55,11.12v7.74H48.2v2.69h9.43V20.27h0V12.35a31.46,31.46,0,0,1,4,2.48v6.72h2.7V17c.45.4.88.81,1.31,1.24a32.34,32.34,0,0,1,5.53,7.36h-23v2.7H75.46A35.06,35.06,0,0,0,42.81,6.07l-1.35,0V25.59H14.39A32.54,32.54,0,0,1,30.21,11.3,31,31,0,0,1,34,10v8.89H23.25v2.69H36.74V6.6A35.11,35.11,0,0,0,10.15,28.29h17.1V72.45c.89.44,1.81.85,2.74,1.22V28.29H41.46v7.4H55V73.92c.92-.34,1.82-.71,2.7-1.12V35.69H74.74Z"/></clipPath><clipPath id="clip-path-9" transform="translate(1.26 2.67)"><path class="cls-1" d="M10.74,42.94H23.51V33.32H9c-.2.9-.38,1.82-.52,2.75H20.81v4.12H8c0,.45,0,.91,0,1.37s0,.92,0,1.38h2.7Z"/></clipPath><clipPath id="clip-path-10" transform="translate(1.26 2.67)"><path class="cls-1" d="M72.44,53.09H62V70.18a35.32,35.32,0,0,0,8.09-7.58H66.55c-.4.45-.82.89-1.24,1.32l-.64.61V55.8h9.54c.41-.88.78-1.79,1.12-2.71H72.44Z"/></clipPath><clipPath id="clip-path-11" transform="translate(1.26 2.67)"><polygon class="cls-1" points="118.89 17.89 108.73 33.2 98.62 17.89 95.74 17.89 95.74 42.89 98.8 42.89 98.8 23.36 108.73 38.16 118.66 23.36 118.66 42.89 121.72 42.89 121.72 17.89 118.89 17.89"/></clipPath><clipPath id="clip-path-12" transform="translate(1.26 2.67)"><polygon class="cls-1" points="129.06 17.89 148.72 17.89 148.72 20.77 132.16 20.77 132.16 28.09 142.18 28.09 142.18 30.97 132.16 30.97 132.16 40.02 149.74 40.02 149.74 42.89 129.06 42.89 129.06 17.89"/></clipPath><clipPath id="clip-path-13" transform="translate(1.26 2.67)"><path class="cls-1" d="M178.23,30.46c0,7.19-4.78,12.43-13.13,12.43H154.39v-25H165.1C173.22,17.89,178.23,23.22,178.23,30.46Zm-20.74-9.69V40h7.61c6.45,0,9.93-4,9.93-9.61s-3.71-9.64-9.93-9.64Z"/></clipPath><clipPath id="clip-path-14" transform="translate(1.26 2.67)"><rect class="cls-2" x="183.76" y="17.75" width="3.15" height="25.23"/></clipPath><clipPath id="clip-path-15" transform="translate(1.26 2.67)"><polygon class="cls-1" points="194.43 17.89 214.09 17.89 214.09 20.77 197.53 20.77 197.53 28.09 207.55 28.09 207.55 30.97 197.53 30.97 197.53 42.89 194.43 42.89 194.43 17.89"/></clipPath><clipPath id="clip-path-16" transform="translate(1.26 2.67)"><path class="cls-1" d="M215.4,30.46c0-7.61,5.47-13.13,12.94-13.13s13,5.52,13,13.13a12.62,12.62,0,0,1-13,13.08c-7.47,0-12.94-5.47-12.94-13.08m22.68,0c0-5.94-4.13-10.2-9.74-10.2s-9.74,4.26-9.74,10.2,4.17,10.16,9.74,10.16,9.74-4.27,9.74-10.16"/></clipPath><clipPath id="clip-path-17" transform="translate(1.26 2.67)"><path class="cls-1" d="M246.67,17.89H261c4.92,0,7.84,2.6,7.84,7a7,7,0,0,1-5.94,7l6.27,11h-3.44l-6.26-10.95h-9.69v11h-3.11ZM260.82,29c3.15,0,4.78-1.44,4.78-4.08S264,20.77,261,20.77H249.78V29Z"/></clipPath><clipPath id="clip-path-18" transform="translate(1.26 2.67)"><polygon class="cls-1" points="274.37 17.89 277.24 17.89 287.36 33.2 297.51 17.89 300.34 17.89 300.34 42.89 297.28 42.89 297.28 23.36 287.36 38.16 277.43 23.36 277.43 42.89 274.37 42.89 274.37 17.89"/></clipPath><clipPath id="clip-path-19" transform="translate(1.26 2.67)"><path class="cls-1" d="M96.75,61.22V66h-1V54.47h5.43a3.39,3.39,0,0,1,0,6.75Zm0-1H101a2.44,2.44,0,0,0,0-4.84H96.75Z"/></clipPath><clipPath id="clip-path-20" transform="translate(1.26 2.67)"><path class="cls-1" d="M109.27,66h-1V54.47h5.4a3.12,3.12,0,0,1,3,3.24,3.19,3.19,0,0,1-2.22,3.12L117.18,66H116l-2.63-5h-4.14Zm4.22-6a2.3,2.3,0,0,0,0-4.59h-4.22V60Z"/></clipPath><clipPath id="clip-path-21" transform="translate(1.26 2.67)"><path class="cls-1" d="M129,66l-1.16-3.42h-5L121.74,66h-1.06l3.87-11.52h1.63L130.05,66Zm-5.79-4.37h4.31l-2.13-6.38h0Z"/></clipPath><clipPath id="clip-path-22" transform="translate(1.26 2.67)"><polygon class="cls-1" points="139.09 59.81 139.09 60.35 143.24 66 142 66 138.44 61.08 138.16 61.08 134.61 66 133.38 66 137.53 60.35 137.53 59.81 133.6 54.47 134.84 54.47 138.2 59.11 138.43 59.11 141.78 54.47 143.03 54.47 139.09 59.81"/></clipPath><clipPath id="clip-path-23" transform="translate(1.26 2.67)"><rect class="cls-2" x="147.15" y="54.47" width="1.01" height="11.53"/></clipPath><clipPath id="clip-path-24" transform="translate(1.26 2.67)"><path class="cls-1" d="M160.92,57.59h-1.08c-.33-1.52-1.48-2.27-3.22-2.27-1.17,0-2.84.73-2.84,2.27s2,1.82,3.4,1.94c2.14.17,4.33.7,4.33,3.21,0,2.34-1.78,3.39-4.1,3.39-2.51,0-4.59-1.39-4.91-3.86h1a3.58,3.58,0,0,0,3.82,2.87c1.64,0,3.11-.58,3.11-2.45,0-1.72-1.72-2.06-3.54-2.17s-4.2-.71-4.2-3c0-1.92,2-3.16,3.87-3.16,2.27,0,3.87,1,4.32,3.26"/></clipPath><clipPath id="clip-path-25" transform="translate(1.26 2.67)"><path class="cls-1" d="M177.23,66h-1.09l-.74-.93a4.67,4.67,0,0,1-3.08,1.07,3.46,3.46,0,0,1-3.57-3.43c0-2,2.11-3.15,2.43-3.32-.25-.34-1.47-1.59-1.47-2.74a2.45,2.45,0,0,1,4.89,0c0,1.55-1.83,2.69-2.21,2.92.24.34,3.12,4.11,3.12,4.11a5.54,5.54,0,0,0,.78-1.32l.83.32a6.69,6.69,0,0,1-1.06,1.72v.07Zm-5.52-5.86h-.1c-.41.22-1.85,1.22-1.85,2.56a2.48,2.48,0,0,0,2.51,2.47,3.86,3.86,0,0,0,2.48-.89v-.11Zm.44-4.81a1.42,1.42,0,0,0-1.43,1.37,4.49,4.49,0,0,0,1.15,2.14h.1c.45-.27,1.62-1.09,1.62-2.14A1.39,1.39,0,0,0,172.15,55.32Z"/></clipPath><clipPath id="clip-path-26" transform="translate(1.26 2.67)"><polygon class="cls-1" points="190.48 55.42 186.45 55.42 186.45 66 185.44 66 185.44 55.42 181.44 55.42 181.44 54.47 190.48 54.47 190.48 55.42"/></clipPath><clipPath id="clip-path-27" transform="translate(1.26 2.67)"><path class="cls-1" d="M200.6,66l-1.15-3.42H194.5L193.35,66h-1.06l3.87-11.52h1.63L201.66,66Zm-5.78-4.37h4.31L197,55.24H197Z"/></clipPath><clipPath id="clip-path-28" transform="translate(1.26 2.67)"><path class="cls-1" d="M212.87,64a4.67,4.67,0,0,1-1.46,1.56,3.1,3.1,0,0,1-1.9.6,4.43,4.43,0,0,1-3.42-1.59,6.52,6.52,0,0,1-1.41-4.31,6.45,6.45,0,0,1,1.42-4.29,4.42,4.42,0,0,1,3.41-1.61,4.28,4.28,0,0,1,4.27,4.05h-1a3.19,3.19,0,0,0-3.24-3.06,3.38,3.38,0,0,0-2.66,1.32,5.58,5.58,0,0,0-1.13,3.57,5.68,5.68,0,0,0,1.13,3.63,3.36,3.36,0,0,0,2.66,1.3,3,3,0,0,0,2.26-1.1,4.59,4.59,0,0,0,1.16-3h-3.57V60.1h4.51V66h-1Z"/></clipPath><clipPath id="clip-path-29" transform="translate(1.26 2.67)"><polygon class="cls-1" points="226.5 55.42 219.78 55.42 219.78 59.68 225.84 59.68 225.84 60.63 219.78 60.63 219.78 65.04 226.83 65.04 226.83 66 218.78 66 218.78 54.47 226.5 54.47 226.5 55.42"/></clipPath><clipPath id="clip-path-30" transform="translate(1.26 2.67)"><path class="cls-1" d="M238.49,57.59h-1.07c-.33-1.52-1.49-2.27-3.23-2.27-1.17,0-2.84.73-2.84,2.27s2,1.82,3.41,1.94c2.13.17,4.33.7,4.33,3.21,0,2.34-1.79,3.39-4.1,3.39-2.52,0-4.6-1.39-4.91-3.86h1a3.58,3.58,0,0,0,3.82,2.87c1.64,0,3.11-.58,3.11-2.45,0-1.72-1.72-2.06-3.54-2.17s-4.2-.71-4.2-3c0-1.92,2-3.16,3.87-3.16,2.26,0,3.87,1,4.31,3.26"/></clipPath><clipPath id="clip-path-31" transform="translate(1.26 2.67)"><polygon class="cls-1" points="246.42 60.48 245.4 60.48 244.46 61.38 244.46 66 243.45 66 243.45 54.47 244.46 54.47 244.46 60.01 250.24 54.47 251.66 54.47 246.97 58.98 246.97 59.53 251.86 66 250.6 66 246.42 60.48"/></clipPath><clipPath id="clip-path-32" transform="translate(1.26 2.67)"><polygon class="cls-1" points="256.81 65.04 263.01 65.04 263.01 66 255.8 66 255.8 54.47 256.81 54.47 256.81 65.04"/></clipPath><clipPath id="clip-path-33" transform="translate(1.26 2.67)"><rect class="cls-2" x="266.87" y="54.47" width="1.01" height="11.53"/></clipPath><clipPath id="clip-path-34" transform="translate(1.26 2.67)"><polygon class="cls-1" points="281.72 54.47 281.72 65.99 279.9 65.99 273.97 55.19 273.9 55.19 273.9 65.99 272.89 65.99 272.89 54.47 274.71 54.47 280.63 65.28 280.71 65.28 280.71 54.47 281.72 54.47"/></clipPath><clipPath id="clip-path-35" transform="translate(1.26 2.67)"><rect class="cls-2" x="286.72" y="54.47" width="1.01" height="11.53"/></clipPath><clipPath id="clip-path-36" transform="translate(1.26 2.67)"><polygon class="cls-1" points="295.71 60.48 294.68 60.48 293.74 61.38 293.74 66 292.73 66 292.73 54.47 293.74 54.47 293.74 60.01 299.53 54.47 300.95 54.47 296.25 58.98 296.25 59.53 301.15 66 299.89 66 295.71 60.48"/></clipPath></defs><g class="cls-3"><rect class="cls-4" width="88" height="88"/></g><g class="cls-5"><rect class="cls-6" x="30.99" y="44.34" width="12.67" height="39.38"/></g><g class="cls-7"><rect class="cls-6" x="30.99" y="30.99" width="12.67" height="19.62"/></g><g class="cls-8"><rect class="cls-6" x="37.4" y="37.4" width="19.62" height="19.62"/></g><g class="cls-9"><rect class="cls-6" x="58.23" y="37.4" width="25.49" height="19.62"/></g><g class="cls-10"><rect class="cls-6" x="37.4" y="51.29" width="19.62" height="32.97"/></g><g class="cls-11"><rect class="cls-6" x="4.27" y="44.34" width="24.96" height="33.51"/></g><g class="cls-12"><rect class="cls-6" x="6.41" y="3.74" width="77.32" height="77.85"/></g><g class="cls-13"><rect class="cls-6" x="4.27" y="30.99" width="25.49" height="19.62"/></g><g class="cls-14"><rect class="cls-6" x="58.23" y="50.75" width="23.36" height="27.1"/></g><g class="cls-15"><rect class="cls-4" x="92" y="15.56" width="35.97" height="35"/></g><g class="cls-16"><rect class="cls-4" x="125.31" y="15.56" width="30.69" height="35"/></g><g class="cls-17"><rect class="cls-4" x="150.65" y="15.56" width="33.84" height="35"/></g><g class="cls-18"><rect class="cls-4" x="180.01" y="15.42" width="13.15" height="35.23"/></g><g class="cls-19"><rect class="cls-4" x="190.69" y="15.56" width="29.67" height="35"/></g><g class="cls-20"><rect class="cls-4" x="211.66" y="15" width="35.93" height="36.21"/></g><g class="cls-21"><rect class="cls-4" x="242.93" y="15.56" width="32.5" height="35"/></g><g class="cls-22"><rect class="cls-4" x="270.63" y="15.56" width="35.97" height="35"/></g><g class="cls-23"><rect class="cls-4" x="92" y="52.13" width="18.47" height="21.53"/></g><g class="cls-24"><rect class="cls-4" x="104.52" y="52.13" width="18.91" height="21.53"/></g><g class="cls-25"><rect class="cls-4" x="116.94" y="52.13" width="19.38" height="21.53"/></g><g class="cls-26"><rect class="cls-4" x="129.64" y="52.13" width="19.86" height="21.53"/></g><g class="cls-27"><rect class="cls-4" x="143.41" y="52.13" width="11.01" height="21.53"/></g><g class="cls-28"><rect class="cls-4" x="148.76" y="52" width="19.01" height="21.79"/></g><g class="cls-29"><rect class="cls-4" x="165.01" y="52" width="18.48" height="21.79"/></g><g class="cls-30"><rect class="cls-4" x="177.7" y="52.13" width="19.04" height="21.53"/></g><g class="cls-31"><rect class="cls-4" x="188.55" y="52.13" width="19.38" height="21.53"/></g><g class="cls-32"><rect class="cls-4" x="200.94" y="52" width="19.2" height="21.79"/></g><g class="cls-33"><rect class="cls-4" x="215.03" y="52.13" width="18.05" height="21.53"/></g><g class="cls-34"><rect class="cls-4" x="226.34" y="52" width="19.01" height="21.79"/></g><g class="cls-35"><rect class="cls-4" x="239.7" y="52.13" width="18.41" height="21.53"/></g><g class="cls-36"><rect class="cls-4" x="252.06" y="52.13" width="17.21" height="21.53"/></g><g class="cls-37"><rect class="cls-4" x="263.13" y="52.13" width="11.01" height="21.53"/></g><g class="cls-38"><rect class="cls-4" x="269.15" y="52.13" width="18.83" height="21.53"/></g><g class="cls-39"><rect class="cls-4" x="282.98" y="52.13" width="11.01" height="21.53"/></g><g class="cls-40"><rect class="cls-4" x="288.99" y="52.13" width="18.41" height="21.53"/></g></svg>