<svg id="Ebene_1" data-name="Ebene 1" xmlns="http://www.w3.org/2000/svg" viewBox="0 0 607.3 806.03">
  <defs>
    <style>
      .cls-1 {
        fill: #ccd3d6;
      }
    </style>
  </defs>
  <g>
    <path class="cls-1" d="M536,647.48c-1-40.71-1.91-75.87,0-98.65.48-5.8,1.21-11.44,1.91-16.89,2.71-20.88,5.26-40.61-4.32-70.71-8-25.13-19.53-55.48-27.95-77.64-4.24-11.17-7.91-20.82-10.13-27.15-6.11-17.47-12.07-44.74-16-62.79l-.63-2.91c-1.48-6.75-2.52-11.24-3.44-15.21-1.55-6.71-2.68-11.56-4.82-22.63-4.41-22.86-16-88.78-18.24-101.76-4.23-24.18-9.89-44.76-18.85-74.28-4.15-13.66-6.38-24.62-8.18-33.42-2.54-12.5-3.95-19.38-8.66-21.83a13.62,13.62,0,0,0-12.6,0c-6.15,3.08-10.72,10.28-12.22,19.26-1.33,8,.21,19.11,2,31.93,1.4,10,2.84,20.43,3.09,30.62.23,9.28.73,24.14,1.33,39.5l-.22-.21c-12.86-12.48-29.82-23.21-42.2-31.05-6-3.77-11.12-7-14.34-9.54-2.11-1.64-4.09-3.27-6-4.86-7.56-6.25-14.1-11.64-22-11.69-6.3-.09-11.48,2.45-14.21,6.84-3,4.76-2.72,11.14.7,18,4.35,8.71,17.3,20.16,29.81,31.24,6.25,5.53,12.16,10.75,16.19,15a326.88,326.88,0,0,1,22.86,26,21.71,21.71,0,0,0-2.18-.23c-8.45-.39-15.79,8.3-16.93,14.21a5.29,5.29,0,0,0-.08.54,23.87,23.87,0,0,0-2.2,1.82c-5.31-1.43-12.4-3.48-19.9-5.64-12.5-3.6-25.43-7.33-32.3-8.86-3.48-.77-6.69-1.81-9.79-2.82-6.64-2.15-12.91-4.18-19.19-2.39C256.52,182,254,188,253.41,191.25c-1.11,5.88,1.79,12.59,7.22,16.71,3.94,3,15.08,7.18,28,12,8.88,3.33,18.06,6.77,24.16,9.63,10.62,5,18,8.16,21.21,9.51A60.42,60.42,0,0,0,339.45,268c1,2.22,2.17,4.57,3.32,7,2.61,5.44,5.44,11.37,8,17.13-10.77-3.06-25.21-11.85-37.11-19.1-3.62-2.2-7.05-4.29-10.19-6.11-12-6.94-19-6.24-22.88-4.43a11.3,11.3,0,0,0-6.31,8.69C273,279.05,278,283.65,293,297.3c2.69,2.46,5.73,5.24,9.15,8.42,19.1,17.74,43.32,28.86,57.41,34.53-.25,18.62-.19,43.28,3.84,58.59,4,15.15,17,38.51,28.53,59.12,6.7,12,13,23.34,16.75,31.57.82,1.82,1.62,3.55,2.4,5.22,8.66,18.66,13.89,29.92,3.58,77.26-5.64,25.91-12.09,50.21-18.33,73.7S384.09,691.63,380,712c-7.93,39.65-18.86,84.24-19,84.69a3,3,0,0,0,2.19,3.63,2.94,2.94,0,0,0,.72.08,3,3,0,0,0,2.91-2.28c.11-.45,11.07-45.17,19-84.94,4-20.22,9.95-42.43,16.19-66s12.74-47.93,18.41-74c10.73-49.31,4.87-61.95-4-81.07-.77-1.65-1.56-3.36-2.37-5.16-3.83-8.46-10.22-19.91-17-32-11.33-20.3-24.17-43.31-28-57.73-3.68-14-3.87-36.76-3.67-54.72l2.19.82c16.83,6.31,21.74-1.38,28.53-12l.39-.62c2.81-4.4,7.65-13.27,13-23.65.79,1.86,1.61,3.67,2.43,5.41,1.94,4.06,4.15,8.78,6.48,13.79,9.69,20.75,20.67,44.28,26.15,50.28,4.8,5.26,9.12,7.1,12.82,5.47,5.76-2.54,7.51-12.75,5.67-33.1-4.32-47.92-8.19-75.82-12.19-87.81l-.31-.93c-3.5-10.51-6-18.11-11.4-18.33h-.23c-4.38,0-7.22,5.24-9.42,10.38-3.82,8.91-11.54,25-19.23,40.19-2.66-7.6-5-15.45-6.94-22.67a1,1,0,0,1,0-.17,78.23,78.23,0,0,1,3.87-18.78c3-9.7,5.29-17.37-4.62-27.87-1.75-1.85-5.4-4.14-12.15-7.6-.37-1.44-.73-2.84-1.09-4.21a3.25,3.25,0,0,0-.12-.59l-.13-.39c-.66-2.52-1.29-4.87-1.87-7a49.27,49.27,0,0,0-4.67-10.8,2.8,2.8,0,0,0-.23-.67,13.81,13.81,0,0,0-1.74-2.64c-7.38-11.83-19.13-24.85-30.44-36.69-4.21-4.42-10.2-9.72-16.55-15.34-11.53-10.2-24.59-21.76-28.42-29.42-2.45-4.9-2.8-9.2-1-12.12,1.59-2.56,4.85-4,9-4h.12c5.74,0,11.23,4.57,18.19,10.32,1.95,1.61,4,3.28,6.14,5,3.46,2.68,8.72,6,14.82,9.87,12.16,7.7,28.81,18.24,41.23,30.29a54.48,54.48,0,0,1,4.77,5.27c.8,19.71,1.7,38.54,2.29,45.71s5.11,25.31,12.2,25.31h0c5.35,0,6-8.18,6.29-11.67,1.21-14.84.57-41.1-14.87-61.57-.71-17.8-1.35-36-1.61-46.79-.26-10.54-1.79-21.57-3.15-31.31-1.64-11.82-3.19-23-2-30.11s4.61-12.69,9-14.88a7.5,7.5,0,0,1,7.14,0c2.18,1.13,3.74,8.81,5.56,17.7,1.72,8.45,4.08,20,8.31,34,10.25,33.77,15,52.33,18.68,73.57,3.19,18.25,14,79.53,18.26,101.86,2.16,11.18,3.3,16.08,4.87,22.85.91,3.95,2,8.43,3.42,15.15l.63,2.9c4,18.19,10,45.68,16.21,63.49,2.24,6.41,5.92,16.09,10.18,27.3,8.4,22.1,19.9,52.35,27.84,77.33,9.18,28.83,6.71,47.92,4.09,68.12-.71,5.52-1.45,11.23-1.94,17.16-1.93,23.11-1,58.41,0,99.3.19,7.62.39,15.4.57,23.28,1.12,48.88,1.59,131.29,1.59,132.12a3,3,0,0,0,3,3h0a3,3,0,0,0,3-3c0-.83-.47-83.3-1.6-132.23C536.33,662.88,536.14,655.1,536,647.48ZM435.14,254.65c2.05-4.78,3.39-6.22,3.9-6.62,1.75,1.49,4.36,9.33,5.95,14.1l.31.94c3.79,11.38,7.69,39.66,11.91,86.45,2.24,24.85-1.94,27-2.12,27.07-.62.27-2.81-.57-6-4-4.86-5.33-16.58-30.44-25.14-48.78-2.34-5-4.56-9.76-6.5-13.84-1.47-3.08-2.89-6.39-4.24-9.83C421.79,283.36,430.88,264.59,435.14,254.65Zm-68.77-66.31a13.57,13.57,0,0,1,9.48,4.31l.29.47a11.71,11.71,0,0,0-2.66-.71,37.73,37.73,0,0,0-15.42.69C360.15,190.52,363.27,188.18,366.37,188.34Zm20,35c-1.14,2.1-4.23,6.86-9.46,8.44-6.52,2-11.06,1.15-15.18-2.72s-6.2-21.17-6.3-28.56c4.54-2.4,10.27-3.13,17.17-2.14,5.3.75,9.57,9.9,10.87,13.63C384.44,215.52,385.43,219.39,386.41,223.33Zm-71.1.84c-6.31-2.95-15.61-6.44-24.59-9.81-10.89-4.08-23.22-8.71-26.46-11.18-3.6-2.73-5.64-7.18-5-10.82.81-4.31,5.12-6.39,8.6-7.39,4.52-1.29,9.45.31,15.69,2.33,3.08,1,6.58,2.14,10.34,3,6.69,1.49,19.53,5.19,31.94,8.77,6.32,1.82,12.34,3.55,17.29,4.92a33.64,33.64,0,0,0-3.85,8.09,110,110,0,0,0-4.79,20.78C330.79,231.23,324.19,228.33,315.31,224.17ZM297,292.87c-14.2-13-17.52-16.22-16.78-20.68a5.33,5.33,0,0,1,2.94-4.25c3.54-1.67,9.85-.14,17.32,4.19,3.09,1.79,6.48,3.86,10.08,6.05,14.57,8.87,31,18.87,43.18,20.75,3.12,7.45,5.44,14.12,5.81,18.44.26,2.95.17,8.9.05,16.44-13.92-5.76-36-16.29-53.41-32.49C302.76,298.14,299.71,295.34,297,292.87Zm94.53,34.68-.39.62c-6.79,10.64-9.08,14.23-21.36,9.62-1.15-.43-2.58-1-4.21-1.6,0-.67,0-1.34,0-2,.12-7.85.21-14.05-.07-17.34-.85-9.89-9.62-28.24-17.35-44.43-1.16-2.41-2.27-4.75-3.32-7-6.65-14.11-6.61-31,.14-51.55a26,26,0,0,1,4.75-8.8c.66,9.47,2.92,23.61,7.9,28.3a18.62,18.62,0,0,0,13.15,5.4,27.25,27.25,0,0,0,7.87-1.31,20.86,20.86,0,0,0,9.63-6.45c1.79,7.41,3.4,14.44,4.36,19.29a348.33,348.33,0,0,0,14,49.43C400.47,311.89,394.7,322.61,391.54,327.55Zm10.08-78.45c-.57,1.87-1.18,3.9-1.77,6.13-.5-2.23-.94-4.28-1.29-6.06-1.24-6.2-3.52-15.94-5.89-25.52a2.16,2.16,0,0,0,0-.36c3.59,2,5.11,3.17,5.71,3.81C405.9,235.07,404.47,239.76,401.62,249.1Zm11.76-38a27.85,27.85,0,0,1-.78,5.13c-2-3.05-5.11-11.12-5.75-18.78-.49-5.87-1.18-19.65-1.85-35.31C410.71,173.06,415.18,188.93,413.38,211.12Z"/>
    <path class="cls-1" d="M333.83,611.71c0-4.31-2.45-9.62-8.6-14.39,1-5.59-.19-11.68-1.68-17.65-2-8.09-12-26.76-23.65-48.55a29,29,0,0,0,6.8-7.19,12.37,12.37,0,0,0,.8-11.66c-1.4-2.86-4.74-6.47-12.72-7.42a66.23,66.23,0,0,0-9-.35c-.85-1.63-1.69-3.25-2.5-4.84-6.48-12.65-12-24.82-17.32-36.59-7.16-15.82-14.57-32.19-24.25-49.44-14.95-26.65-27.91-38.73-40.45-50.41-1.74-1.62-3.49-3.25-5.25-4.92-13.09-12.44-13.63-22.2-14.91-45.78l-.18-3.18c-1.16-21,6.28-47.74,21.1-101,3.23-11.62,6.89-24.78,10.84-39.28C234.46,89.74,252.29,4.48,252.47,3.63a3,3,0,0,0-5.88-1.23c-.17.85-18,85.94-39.54,165-4,14.49-7.61,27.64-10.83,39.25-15,53.94-22.53,81-21.31,103l.18,3.17c1.29,23.79,1.95,35.73,16.77,49.81,1.77,1.69,3.53,3.32,5.29,5,12.76,11.89,24.82,23.12,39.31,48.95,9.56,17,16.58,32.55,24,49,5.35,11.84,10.89,24.08,17.44,36.85l1.23,2.4c-3.38.21-6.9.51-10.5.81-7.23.62-14.69,1.26-21,1.13-17.95-.34-32.25-1.85-42.52-4.51-21.57-5.57-30.6-25.37-32.53-36.19-1.23-6.88,1.19-12.82,4.55-21a121.11,121.11,0,0,0,7.57-23.48c4.46-22.26.62-37.59.45-38.23a3,3,0,0,0-5.81,1.5c0,.14,3.67,14.63-.52,35.56a116.2,116.2,0,0,1-7.24,22.38c-3.46,8.46-6.44,15.77-4.91,24.37,2.71,15.18,14,35,36.94,40.94,10.72,2.77,25.49,4.35,43.91,4.7,6.6.12,14.23-.52,21.6-1.15,4.4-.37,8.86-.75,13-.95,3.2,6.11,6.57,12.4,9.89,18.61a52.79,52.79,0,0,1-18.56,6.7c-8.6,1.47-17.29,2.58-26.65,3.37-1.25-2.42-2.28-4.52-3.16-6.31-2.56-5.2-4.1-8.33-6.36-10.4-10.28-9.4-20.54-5.51-26.1-3.4-8,3-10.65,13.32-9.87,23.36l-1.84.37c-5,1-6.94,1.41-11.55-.89-9.63-4.82-20-13.82-29-21.88C152,513.8,144.67,507.22,138,509.58c-4.2,1.48-6.88,6.15-8.18,14.28a114.74,114.74,0,0,0-.47,33.72c-4.72-6.65-8.52-13.05-10.72-19.63-2.66-8-5.61-22.85-9-40.05-3.29-16.53-7-35.26-11.31-52-2.87-11.18-5.43-20.29-7.48-27.6C86.53,403.13,84,394,83.32,383.84c-.32-5.1-.26-9.35-.21-13.46.11-8.24.21-16-2.78-28.32-.54-2.24-1.1-4.42-1.64-6.58-3.84-15.21-7.16-28.35-5.09-48.23,2.55-24.41,5.37-70,5.84-110,.49-40.44-4.32-111.19-4.37-111.9a3,3,0,0,0-6,.41c0,.71,4.84,71.22,4.36,111.42C73,217,70.16,262.35,67.63,286.63c-2.18,20.94,1.43,35.21,5.24,50.32.54,2.14,1.09,4.31,1.63,6.52,2.81,11.57,2.72,18.64,2.61,26.83,0,4.22-.11,8.59.22,13.92C78,395,80.65,404.37,85,419.93c2,7.29,4.59,16.35,7.45,27.47,4.26,16.57,8,35.22,11.23,51.67,3.45,17.4,6.44,32.42,9.22,40.77,3.61,10.82,10.82,20.73,19.42,31.7l.19.56a3,3,0,0,0,1.61,1.73l2,2.51c3.49,4.42,7.11,9,10.73,13.86,14.7,19.78,36.46,47.68,56.57,68.28,4.53,4.63,9.88,10.26,15.55,16.22,20.81,21.89,44.4,46.7,54.68,51.84a15.9,15.9,0,0,0,7.06,1.94,8.37,8.37,0,0,0,5.55-2c4.62-3.86,4.68-12.58,2.77-19-1.6-5.46-4.71-9.9-9.57-15.85,12.58,3.52,22.37,5.27,29.58,5.27a29.73,29.73,0,0,0,6.95-.71c6.91-1.66,9.45-5.38,10.37-8.22,1.66-5.13-.59-11.82-6.18-18.34-6-7-18.78-12.74-39.15-17.62-11.22-2.7-14.88-6-22.11-13.23-4.38-4.39-13-10.67-19.57-15.19,1.29.12,2.58.25,3.87.34,20.82,1.52,54.39,1.64,71.82.24,15.8-1.26,19.14-3.2,18.83-10.89C333.86,612.79,333.83,612.27,333.83,611.71ZM288.9,510.49c1.85,0,3.59.13,5.16.31,4.2.51,7,1.93,8.05,4.11a6.42,6.42,0,0,1-.55,5.94,22.21,22.21,0,0,1-4.55,4.89C294.29,520.66,291.55,515.52,288.9,510.49Zm-14.36,31.36a59.09,59.09,0,0,0,20.38-7.32c10.93,20.39,21,39.29,22.81,46.6a48,48,0,0,1,1.83,12.57,56.19,56.19,0,0,0-8.9-3.76c-10.35-3.46-21-2.21-30.4-1.11l-.61.07c-6.9-7.56-14.06-17.5-22-30.46-3.14-5.12-5.67-9.55-7.75-13.37C258.48,544.28,266.55,543.22,274.54,541.85Zm43.62,57.95a13.57,13.57,0,0,1-3.77,4.48c-2.34,1.87-7.21,5.78-19.79-2.37a67.25,67.25,0,0,1-9.6-7.58c7.93-.85,16-1.29,23.77,1.3A49.1,49.1,0,0,1,318.16,599.8Zm-45.83-10.15a53.26,53.26,0,0,1-6.87.14c-8.87-.5-18.89-5.1-29.5-10-4.27-2-8.68-4-13.22-5.84-11.54-4.72-11.72-6-13.41-18.28-.33-2.39-.7-5.06-1.21-8.17a97.36,97.36,0,0,1,10.64-.78c8.86-.2,17-.58,24.62-1.14,2.34,4.39,5.3,9.67,9.16,16A223.54,223.54,0,0,0,272.33,589.65Zm-58.9-64.86a26.31,26.31,0,0,1,9.31-2.21c3.3,0,6.88,1.08,10.57,4.45,1.42,1.3,2.77,4.06,5,8.62q.9,1.86,2.06,4.15c-6.8.46-14,.77-21.77,1a104.61,104.61,0,0,0-11.28.83C206.86,534,208.61,526.62,213.43,524.79Zm66.21,133.05c18.84,4.52,30.95,9.8,36,15.69,4.07,4.76,6,9.58,5,12.59-.65,2-2.69,3.43-6.07,4.24-4.85,1.16-15.75,1-40.11-6.44l-1-.32a3.24,3.24,0,0,0-.75-.11c-1.56-1.89-3.24-3.92-5.06-6.18-11.72-14.52-18.93-24.89-28.27-44.55-.45-1-1-1.91-1.49-2.89,6,4.23,13.17,9.5,16.82,13.15C262.32,650.66,266.9,654.78,279.64,657.84ZM327.49,616c-2.3,1.39-10.29,2-12.92,2.24-17.19,1.38-50.32,1.26-70.91-.24-5-.37-10.09-1-15-1.82-12.45-16-30.41-32.19-41.28-37.23-3.64-1.7-8.21-3.32-11.29-.89-3.4,2.68-2.35,7.8-1.14,13.71.34,1.63.68,3.31.92,4.91,1.56,10.36,8,16.77,18.5,18.53,2.48.41,6,1.23,10.16,2.17,5.91,1.34,13.07,3,20.8,4.32a83.63,83.63,0,0,1,8.57,13.68c9.54,20.09,17.25,31.17,29,45.75,3,3.67,5.56,6.78,7.86,9.53,7,8.32,10.81,12.91,12.47,18.56,1.54,5.24,1.14,11.08-.87,12.76-1.48,1.25-4.44.06-6.08-.76-9.34-4.66-33.56-30.14-53-50.61-5.68-6-11-11.61-15.6-16.28-19.88-20.35-41.45-48-56.05-67.66-3.67-4.94-7.31-9.54-10.84-14l-3.07-3.89a104.2,104.2,0,0,1-2-43.92c.87-5.44,2.42-8.93,4.25-9.57,3.33-1.17,10.11,4.93,15.06,9.38,9.24,8.32,20,17.63,30.27,22.78,6.47,3.24,10,2.51,15.44,1.41l1.46-.3c.49,3,.86,5.66,1.18,8,1.9,13.74,2.89,17.21,17.08,23,4.43,1.81,8.78,3.8,13,5.74,11.15,5.11,21.67,9.94,31.68,10.5a75,75,0,0,0,12.21-.57,79.66,79.66,0,0,0,14,11.74c11.06,7.16,19.58,7.8,26.81,2a20.06,20.06,0,0,0,4.91-5.62c3.24,2.92,4.77,5.91,4.77,8.37,0,.65,0,1.25.05,1.81C328,615.66,327.9,615.7,327.49,616Zm-107.88-1.49c-5-1-9.66-2.06-13.71-3-4.21-1-7.85-1.79-10.51-2.24-8.06-1.34-12.36-5.63-13.55-13.5-.26-1.76-.62-3.52-1-5.22-.5-2.45-1.32-6.44-1-7.75.47,0,1.85.11,5,1.57C193.77,588.46,208.21,601.09,219.61,614.46Z"/>
  </g>
</svg>
