<svg id="Ebene_1" data-name="Ebene 1" xmlns="http://www.w3.org/2000/svg" viewBox="0 0 607.3 806.03">
  <defs>
    <style>
      .cls-1 {
        fill: #dcddd7;
      }
    </style>
  </defs>
  <path class="cls-1" d="M546.7,603.67c-.91-34.14-5.19-88.44-20.37-153.31-15.24-65.13-46.51-116-70.06-147.17-24.7-32.72-45.74-50.78-47.89-52.6-3.77-4.06-21.31-22.15-31.14-18.3-3.9,1.52-5.88,5.72-5.88,12.49,0,27.52,11,74.55,41.71,124,22.79,36.66,52.09,73.52,71.48,97.91,6.64,8.36,11.89,15,15.15,19.39a187.81,187.81,0,0,1,19.53,33.81c1.43,5.37,4,21-1.75,25.83-3.88,3.29-11.26.95-16.77-1.59-33.19-15.32-134.9-128.08-138.65-132.25-7.83-10.67-73-98.8-94.69-104.79-21.5-5.94-84.47-9.28-87.14-9.42h-.14c-8.32,0-21.1-2.17-23.45-6.79-.88-1.72-.23-4.1,1.92-7.08,3-4.2,22.38-5.39,38.58-4.09h.15a85.78,85.78,0,0,0,25.43-3.8c17.79-5.54,29.36-16.5,33.44-31.69,2.34-8.66,3.18-17.52,4.08-26.9s1.82-19.07,4.37-28.51c37.48.36,81.81-3.36,98.17-17.66,4.25-3.72,6.47-8,6.6-12.8.31-12-3.32-20.81-10.79-26.19-17.38-12.5-49.12-1.15-50.46-.66l-.36.16c-29.19,15.23-41.68,33.09-47.6,51.12-13-.23-25.8-1-37.19-2.2-65.71-7.11-105.87-25.75-122.77-57-5.39-10-6.68-17.87-3.73-22.83,4.17-7,15.69-7.12,15.8-7.12h0a4,4,0,0,0,.51,0c17.92,14.8,41.56,21.41,59.13,22.44.9.06,1.77.08,2.6.08,7.33,0,12-2,14-6.09,3.66-7.6-4.24-18.84-11.51-26.93a163.68,163.68,0,0,0-21-19.85c-3-2.45-6.09-5-9.86-8.33a1.16,1.16,0,0,1-.39-1.13c.19-2.31,3.32-9.74,28.24-28.51,14.1-10.62,28.25-19.61,28.39-19.7A3,3,0,0,0,199.17.5c-9.7,6.15-58.16,37.58-59.4,52.8a7.12,7.12,0,0,0,2.38,6.09c3.86,3.43,7,6,10,8.49A157.4,157.4,0,0,1,172.52,87.1c9.79,10.88,11.81,17.75,10.57,20.32-1,2-4.91,3-10.82,2.62C151,108.79,120.39,99,104,75.4c-4-5.8-5.35-10.29-3.62-12.32,3.07-3.63,15.28-2.64,22.49.77,17,8,33.45,22.22,48.89,42.15a3,3,0,1,0,4.74-3.67c-16-20.68-33.2-35.46-51.06-43.9a42.77,42.77,0,0,0-15.12-3.59c-4.73-.24-11.1.32-14.52,4.36-3.78,4.46-2.68,11.06,3.27,19.62a71.56,71.56,0,0,0,7.81,9.38C102,89.1,95,91.47,91.34,97.66c-4.17,7-3,16.66,3.59,28.78,17.91,33.12,59.58,52.78,127.41,60.11,9.47,1,22.15,1.87,36.11,2.17-2.42,9.5-3.32,19-4.19,28s-1.69,17.74-3.89,25.91c-3.57,13.25-13.42,22.49-29.28,27.48a81.59,81.59,0,0,1-23.56,3.57c-6.4-.51-37.33-2.47-43.84,6.57-3.57,4.95-4.37,9.43-2.4,13.31,4.9,9.6,25.93,10.06,28.7,10.07,2.44.13,65.21,3.53,85.79,9.21,16.76,4.62,71.75,75.69,91.53,102.68a2,2,0,0,0,.18.23c4.31,4.8,106,117.75,140.71,133.79,10.31,4.77,18.11,5,23.16.73,9.78-8.28,4.27-29.76,3.61-32.19a2.72,2.72,0,0,0-.13-.37,190.29,190.29,0,0,0-20.31-35.21c-3.32-4.52-8.6-11.16-15.29-19.58-19.3-24.28-48.47-61-71.07-97.33-30.09-48.4-40.81-94.16-40.81-120.85,0-3.88.76-6.39,2.07-6.91,4-1.55,16,7.5,24.67,16.93a2.37,2.37,0,0,0,.28.27c.22.18,22.09,18.57,47.21,51.89,23.16,30.7,53.91,80.74,68.9,144.77,28.8,123,18.68,209.68,18.57,210.54a2.75,2.75,0,0,0,0,.41c0,.5.47,50.89-21.53,68.33-7.25,5.74-16,7.23-26.64,4.56a75.45,75.45,0,0,1-16.16-6.18c-10.08-47.79-38.11-104.6-60.43-146.68-32.59-61.42-70.45-105-72.21-107-5.57-7.09-19.29-23-27.36-19.83-5.62,2.23-4.81,11.12-4.55,14,2.79,30.62,24.5,92,52.38,134.45,3.59,5.47,7.47,11.6,11.58,18.08,24.48,38.67,56.71,89.58,95.3,110.88A145.32,145.32,0,0,1,472.5,765c-.44,16-5.6,26.68-15.32,31.67-19.88,10.2-59.09-3.32-110.41-38.07-67.24-45.51-107.38-108-131.35-145.26-6.52-10.14-11.67-18.15-15.71-23.14-8.08-10-20.8-22-34.26-34.71-8.21-7.76-17-16-25.2-24.37,28-46.28,60.07-107.42,62.4-111.88,1.58-2.61,24.19-40.49,14-62.22-3.65-7.79-10.89-12.53-21.52-14.09-23.91-3.52-54.26-2.53-79.22,2.58-38.45,7.87-48.73,21.63-50.59,31.79-4,21.85-3.17,68,47.13,131.41A245.09,245.09,0,0,0,132.69,532c-10.91,17.85-21,33-28,40.81A328,328,0,0,0,63,630.62a2.68,2.68,0,0,0-.27.68c-5.21,20.86-1.73,38.42,10.36,52.17,18,20.48,54.39,32.2,108.17,34.82a517.47,517.47,0,0,0,75-2.11,3,3,0,0,0-.7-6c-1.37.16-137.47,15.42-178-30.71-10.64-12.11-13.71-27.71-9.13-46.39a325.17,325.17,0,0,1,40.67-56.31c7.17-8,17.14-22.84,27.91-40.39,8,8.05,16.39,16,24.3,23.45C174.64,572.44,187.22,584.32,195,594c3.84,4.74,8.91,12.63,15.33,22.61,24.23,37.7,64.78,100.78,133,147C384.85,791.65,418.22,806,441.54,806c7.07,0,13.21-1.32,18.38-4C471.74,796,478,783.57,478.5,765.18a143.47,143.47,0,0,0-2.37-28.45,77.67,77.67,0,0,0,13.28,4.66c12.44,3.12,23.15,1.2,31.83-5.68,23.81-18.88,23.84-68.78,23.8-72.92C545.31,660.45,547.64,638.8,546.7,603.67ZM310.36,137.09c2.48-.87,30.53-10.27,44.73,0,5.76,4.14,8.55,11.26,8.29,21.16-.08,3.06-1.57,5.82-4.55,8.43-8.72,7.63-29.8,13-59.34,15.18-10.31.76-21.62,1.1-33,1C272.24,166.57,284,150.88,310.36,137.09Zm68.83,482.18c-4.12-6.5-8-12.65-11.63-18.17-21.66-33-48.1-95.2-51.42-131.69-.62-6.8.77-7.92.79-7.93a.8.8,0,0,1,.2,0c.78,0,3.82.57,11.1,7.78a131.6,131.6,0,0,1,9.18,10.27.76.76,0,0,0,.11.14c.38.43,38.61,44,71.46,105.88,21.34,40.24,48,94,58.72,139.88C432.49,703.47,402.32,655.8,379.19,619.27ZM135.91,526.68a234.06,234.06,0,0,1-18.69-21.61c-21-26.45-54.85-78.09-46-126.68,2.12-11.61,18.85-21.45,45.89-27a243.83,243.83,0,0,1,47.42-4.5,207.78,207.78,0,0,1,29.72,2c8.63,1.27,14.17,4.76,16.95,10.69,9,19.12-13.52,56.26-13.75,56.63a1.62,1.62,0,0,0-.1.18C196.91,417.28,164.3,479.56,135.91,526.68Z"/>
</svg>
