<?xml version="1.0" encoding="utf-8"?>
<!-- Generator: Adobe Illustrator 25.2.1, SVG Export Plug-In . SVG Version: 6.00 Build 0)  -->
<svg version="1.1" id="Layer_1" xmlns="http://www.w3.org/2000/svg" xmlns:xlink="http://www.w3.org/1999/xlink" x="0px" y="0px"
	 viewBox="0 0 32 32" style="enable-background:new 0 0 32 32;" xml:space="preserve">
<style type="text/css">
	.st0{clip-path:url(#SVGID_2_);}
	.st1{fill:#636951;}
	.st2{clip-path:url(#SVGID_4_);}
	.st3{fill:#FFFFFF;}
	.st4{clip-path:url(#SVGID_6_);}
	.st5{clip-path:url(#SVGID_8_);}
	.st6{clip-path:url(#SVGID_10_);}
	.st7{clip-path:url(#SVGID_12_);}
	.st8{clip-path:url(#SVGID_14_);}
	.st9{clip-path:url(#SVGID_16_);}
	.st10{clip-path:url(#SVGID_18_);}
	.st11{clip-path:url(#SVGID_20_);}
</style>
<g>
	<defs>
		<path id="SVGID_1_" d="M31,16c0,8.3-6.7,15-15,15S1,24.3,1,16S7.7,1,16,1S31,7.7,31,16"/>
	</defs>
	<clipPath id="SVGID_2_">
		<use xlink:href="#SVGID_1_"  style="overflow:visible;"/>
	</clipPath>
	<g class="st0">
		<rect x="-0.9" y="-0.9" class="st1" width="33.8" height="33.8"/>
	</g>
</g>
<g>
	<defs>
		<path id="SVGID_3_" d="M12.9,28.1v1.1c0.3,0.1,0.7,0.1,1,0.2V18.1h-1V28.1z"/>
	</defs>
	<clipPath id="SVGID_4_">
		<use xlink:href="#SVGID_3_"  style="overflow:visible;"/>
	</clipPath>
	<g class="st2">
		<rect x="11" y="16.1" class="st3" width="4.9" height="15.1"/>
	</g>
</g>
<g>
	<defs>
		<rect id="SVGID_5_" x="12.9" y="12.9" width="1" height="3.7"/>
	</defs>
	<clipPath id="SVGID_6_">
		<use xlink:href="#SVGID_5_"  style="overflow:visible;"/>
	</clipPath>
	<g class="st4">
		<rect x="11" y="11" class="st3" width="4.9" height="7.5"/>
	</g>
</g>
<g>
	<defs>
		<polygon id="SVGID_7_" points="15.4,15.4 15.4,16.4 18,16.4 18,18 15.4,18 15.4,19.1 18,19.1 19.1,19.1 19.1,18 19.1,16.4 
			19.1,15.4 18,15.4 		"/>
	</defs>
	<clipPath id="SVGID_8_">
		<use xlink:href="#SVGID_7_"  style="overflow:visible;"/>
	</clipPath>
	<g class="st5">
		<rect x="13.5" y="13.5" class="st3" width="7.5" height="7.5"/>
	</g>
</g>
<g>
	<defs>
		<path id="SVGID_9_" d="M24.9,16.4h4.4c0-0.2,0-0.4,0-0.5c0-0.2,0-0.4,0-0.5h-5.9v3.7H29c0.1-0.3,0.1-0.7,0.2-1.1h-4.8v-1.6H24.9z"
			/>
	</defs>
	<clipPath id="SVGID_10_">
		<use xlink:href="#SVGID_9_"  style="overflow:visible;"/>
	</clipPath>
	<g class="st6">
		<rect x="21.5" y="13.5" class="st3" width="9.8" height="7.5"/>
	</g>
</g>
<g>
	<defs>
		<path id="SVGID_11_" d="M15.4,20.7v4.7H18v2.9c-0.7,0.1-1.4,0.2-2.1,0.2c-0.2,0-0.4,0-0.5,0v1c0.2,0,0.4,0,0.5,0
			c1.1,0,2.1-0.1,3.2-0.4v-4.8h-2.6v-2.6h2.6v-1H15.4z"/>
	</defs>
	<clipPath id="SVGID_12_">
		<use xlink:href="#SVGID_11_"  style="overflow:visible;"/>
	</clipPath>
	<g class="st7">
		<rect x="13.5" y="18.8" class="st3" width="7.5" height="12.7"/>
	</g>
</g>
<g>
	<defs>
		<path id="SVGID_13_" d="M8.4,18.1H2.6c0.1,0.3,0.1,0.7,0.2,1h4.5v1.8h-4c1,2.5,2.7,4.7,5,6.2v-1.3l0,0v-2.4h-1V25l-0.2-0.2
			c-0.8-0.8-1.5-1.8-2.1-2.8h3.4v-1l0,0V18.1z"/>
	</defs>
	<clipPath id="SVGID_14_">
		<use xlink:href="#SVGID_13_"  style="overflow:visible;"/>
	</clipPath>
	<g class="st8">
		<rect x="0.7" y="16.1" class="st3" width="9.6" height="12.9"/>
	</g>
</g>
<g>
	<defs>
		<path id="SVGID_15_" d="M28.3,13.8h1.1c-0.1-0.3-0.1-0.7-0.2-1H16.5V3.5c1.4,0.1,2.8,0.4,4.2,0.9v3h-2.6v1h3.6V7.9l0,0v-3
			c0.5,0.3,1.1,0.6,1.5,1v2.6h1V6.6c0.2,0.2,0.3,0.3,0.5,0.5c0.8,0.8,1.6,1.8,2.1,2.8h-8.8v1h10.5c-2-5.2-7-8.6-12.6-8.6h-0.5v7.5
			H5.1c1.4-2.5,3.5-4.4,6.1-5.5c0.5-0.2,1-0.4,1.5-0.5v3.4H8.5v1h5.2V2.6C9.1,3.5,5.2,6.6,3.5,11H10v17c0.3,0.2,0.7,0.3,1.1,0.5V11
			h4.4v2.8h5.2v14.7c0.4-0.1,0.7-0.3,1-0.4V13.8H28.3z"/>
	</defs>
	<clipPath id="SVGID_16_">
		<use xlink:href="#SVGID_15_"  style="overflow:visible;"/>
	</clipPath>
	<g class="st9">
		<rect x="1.5" y="0.5" class="st3" width="29.7" height="29.9"/>
	</g>
</g>
<g>
	<defs>
		<path id="SVGID_17_" d="M3.7,16.6h4.9v-3.7H3c-0.1,0.3-0.1,0.7-0.2,1.1h4.7v1.6H2.6c0,0.2,0,0.4,0,0.5c0,0.2,0,0.4,0,0.5H3.7
			L3.7,16.6z"/>
	</defs>
	<clipPath id="SVGID_18_">
		<use xlink:href="#SVGID_17_"  style="overflow:visible;"/>
	</clipPath>
	<g class="st10">
		<rect x="0.7" y="11" class="st3" width="9.8" height="7.5"/>
	</g>
</g>
<g>
	<defs>
		<path id="SVGID_19_" d="M27.4,20.5h-4v6.6c1.2-0.8,2.2-1.8,3.1-2.9h-1.4c-0.2,0.2-0.3,0.3-0.5,0.5l-0.2,0.2v-3.4h3.7
			c0.2-0.3,0.3-0.7,0.4-1H27.4z"/>
	</defs>
	<clipPath id="SVGID_20_">
		<use xlink:href="#SVGID_19_"  style="overflow:visible;"/>
	</clipPath>
	<g class="st11">
		<rect x="21.5" y="18.6" class="st3" width="9" height="10.4"/>
	</g>
</g>
</svg>
